<svg xmlns="http://www.w3.org/2000/svg" viewBox="0 0 480 320" role="img" aria-labelledby="t d">
  <title id="t">An annotated design case file</title><desc id="d">A stack of case papers shows an observed problem, a marked-up before view, and a clearer after view.</desc>
  <rect width="480" height="320" fill="#F7F3EA"/>
  <g fill="none" stroke-linecap="round" stroke-linejoin="round">
    <path d="M28 31h62m-62 8h25M388 31h63" stroke="#B8C5B6" stroke-width="1.5"/>
    <path d="M90 64l227-20 19 220-227 20z" fill="#E4EBDD" stroke="#174B40" stroke-width="2"/>
    <path d="M121 53l227 6-7 220-227-6z" fill="#FFFCF5" stroke="#174B40" stroke-width="2.5"/>
    <path d="M146 89h89m-89 12h61" stroke="#174B40" stroke-width="3"/>
    <path d="M145 128h160v45H145zm0 64h160v45H145z" stroke="#B8C5B6" stroke-width="1.8"/>
    <path d="M163 143h78m-78 13h116m-116 51h73m-73 13h110" stroke="#9AAF9D" stroke-width="2.2"/>
    <path d="M250 152l39 0m-40 65h42" stroke="#174B40" stroke-width="2.8"/>
    <path d="M317 128c31 7 48 22 55 48m-8-9l8 10 7-10" stroke="#BA5538" stroke-width="2.5"/>
    <path d="M111 253c-24 15-38 13-53 7m10-8l-11 8 10 9" stroke="#BA5538" stroke-width="2"/>
  </g>
  <circle cx="303" cy="150" r="17" stroke="#BA5538" stroke-width="2.5" fill="none"/><circle cx="303" cy="216" r="17" stroke="#174B40" stroke-width="2.5" fill="none"/>
  <path d="M295 216l6 7 11-14" stroke="#174B40" stroke-width="3" fill="none" stroke-linecap="round" stroke-linejoin="round"/>
  <circle cx="81" cy="105" r="5" fill="#BA5538"/><circle cx="392" cy="236" r="5" fill="#174B40"/>
</svg>
