<svg xmlns="http://www.w3.org/2000/svg" viewBox="0 0 480 320" role="img" aria-labelledby="t d">
  <title id="t">From tangled problem to clear path</title><desc id="d">A loose knot of lines resolves into three ordered design steps and a clear destination.</desc>
  <rect width="480" height="320" fill="#F7F3EA"/>
  <g fill="none" stroke-linecap="round" stroke-linejoin="round">
    <path d="M28 31h64m-64 8h25M388 31h63" stroke="#B8C5B6" stroke-width="1.5"/>
    <path d="M37 231c31-40 79-87 112-65 24 16-20 53-54 35-35-18-16-78 31-87 52-10 71 29 47 53-25 24-79-3-55-49 23-44 93-50 119-18" stroke="#174B40" stroke-width="3"/>
    <path d="M48 152c28 19 56 33 77 14m21 84c-3-22-16-38-37-44M88 94c22-8 43-7 61 6" stroke="#9AAF9D" stroke-width="2"/>
    <path d="M218 155c27 0 29 0 53 0" stroke="#BA5538" stroke-width="3" stroke-dasharray="2 8"/>
    <path d="M265 149l10 6-10 6" stroke="#BA5538" stroke-width="3"/>
    <path d="M293 77l11-6 11 6 11-6 11 6m-44 59l11-6 11 6 11-6 11 6m-44 59l11-6 11 6 11-6 11 6" stroke="#B8C5B6" stroke-width="1.5"/>
    <path d="M295 82h129v48H295zm0 59h129v48H295zm0 59h129v48H295z" stroke="#174B40" stroke-width="2.5"/>
    <path d="M332 105h62m-62 59h50m-50 59h62" stroke="#174B40" stroke-width="2.5"/>
    <path d="M32 278c115-4 226 9 419-2" stroke="#B8C5B6" stroke-width="1.5"/>
  </g>
  <circle cx="59" cy="139" r="6" fill="#BA5538"/><circle cx="176" cy="117" r="5" fill="#174B40"/><circle cx="304" cy="105" r="7" fill="#BA5538"/><circle cx="304" cy="164" r="7" fill="#BA5538"/><circle cx="304" cy="223" r="7" fill="#BA5538"/>
  <path d="M247 74v17m-8-9h16m-13-10l10 20m0-20l-10 20" stroke="#BA5538" stroke-width="2" stroke-linecap="round"/>
</svg>
